Coordinates
version=1
nRows=14
nColumns=36
inDegrees=yes

Units are S.I. units (second, meters, Newtons, ...)
If the header above contains a line with 'inDegrees', this indicates whether rotational values are in degrees (yes) or radians (no).

endheader
time	pelvis_tilt	pelvis_list	pelvis_rotation	pelvis_tx	pelvis_ty	pelvis_tz	hip_flexion_r	hip_adduction_r	hip_rotation_r	knee_angle_r	knee_angle_r_beta	ankle_angle_r	subtalar_angle_r	mtp_angle_r	hip_flexion_l	hip_adduction_l	hip_rotation_l	knee_angle_l	knee_angle_l_beta	ankle_angle_l	subtalar_angle_l	mtp_angle_l	lumbar_extension	lumbar_bending	lumbar_rotation	arm_flex_r	arm_add_r	arm_rot_r	elbow_flex_r	pro_sup_r	arm_flex_l	arm_add_l	arm_rot_l	elbow_flex_l	pro_sup_l
      8.73000000	     -1.75731296	     -2.21605238	      2.97423439	     -0.16169383	      1.03995477	     -0.62892435	      2.92283107	     -2.52677043	     -7.91892060	      7.01811916	      0.12248929	      4.53426469	     -6.45053712	     -7.49999987	     10.45180474	    -10.46877424	     -3.82028551	     14.80319205	      0.25836444	      8.13534057	     18.60892005	     -7.49999987	    -12.81037512	      5.08495514	     -0.33379521	     -2.54796977	    -13.63709308	     18.68237446	    124.58412873	    112.23818516	      1.62160343	    -13.78277043	     32.38763426	    119.48535236	    109.03098759
      8.74000000	     -2.24356419	     -2.36442884	      2.90046088	     -0.16401513	      1.03918635	     -0.62894207	      3.78182295	     -2.43722468	     -7.98959824	      7.32779742	      0.12789419	      4.43906023	     -6.50393452	     -7.49999987	     11.34503168	    -10.64084226	     -3.84025608	     15.19337025	      0.26517434	      8.12987339	     18.67134313	     -7.49999987	    -12.84691156	      5.20624931	     -0.28388687	     -2.31652056	    -13.65177216	     18.67588922	    124.63956558	    112.43274911	      1.86769387	    -13.77988968	     32.42758023	    119.57014920	    108.64627904
      8.75000000	     -2.74264277	     -2.41258750	      2.84770654	     -0.16648121	      1.03840354	     -0.62910684	      4.68101904	     -2.48637849	     -8.11927570	      7.70172425	      0.13442045	      4.53760649	     -6.30747868	     -7.49999987	     12.21095328	    -10.61737315	     -3.51175571	     15.49884798	      0.27050593	      7.93240847	     17.99870948	     -7.49999987	    -12.90652209	      5.22721134	     -0.30560350	     -2.02208797	    -13.64825691	     18.59575953	    124.67291938	    112.83207907	      2.12973045	    -13.82118064	     32.40222995	    119.52421170	    109.23782605
      8.76000000	     -3.29815954	     -2.49848986	      2.77648493	     -0.16911370	      1.03743868	     -0.62924724	      5.65366306	     -2.47829131	     -8.05577578	      8.06502118	      0.14076117	      4.45724459	     -6.50510344	     -7.49999987	     13.27030289	    -10.71080540	     -3.52948599	     16.03528747	      0.27986856	      8.00286397	     18.11991732	     -7.49999987	    -12.94662929	      5.27737830	     -0.29797149	     -1.72746714	    -13.65152307	     18.56370183	    124.72115758	    112.88560477	      2.41794816	    -13.85163577	     32.50792749	    119.66798392	    108.27899002
      8.77000000	     -3.91627976	     -2.55218074	      2.74495244	     -0.17202811	      1.03634921	     -0.62960020	      6.78948643	     -2.55254413	     -8.17868592	      8.60259218	      0.15014356	      4.57750211	     -6.45228722	     -7.49999987	     14.43498811	    -10.70750883	     -3.31855913	     16.57833374	      0.28934651	      7.89639191	     17.77187842	     -7.49999987	    -12.97678887	      5.30977685	     -0.32570439	     -1.41415235	    -13.64873597	     18.50781440	    124.77795712	    112.89272520	      2.74419906	    -13.88207611	     32.53995315	    119.73603240	    108.18367804
      8.78000000	     -4.55552524	     -2.64252806	      2.74455785	     -0.17518486	      1.03513603	     -0.62985320	      8.00291606	     -2.59520441	     -8.37700425	      9.21878716	      0.16089819	      4.60339441	     -6.45493485	     -7.49999987	     15.72259023	    -10.76234961	     -3.10175433	     17.25776804	      0.30120487	      7.87397570	     17.59671163	     -7.49999987	    -13.03466948	      5.37291581	     -0.35615861	     -1.06644318	    -13.64606712	     18.47912025	    124.80002644	    113.00944912	      3.15398944	    -13.92334055	     32.63131411	    119.84894497	    107.57620530
      8.79000000	     -5.21664540	     -2.73707258	      2.68956455	     -0.17849264	      1.03377047	     -0.63002365	      9.32379017	     -2.64609480	     -8.55015492	      9.96937370	      0.17399840	      4.69655641	     -6.40931337	     -7.49999987	     17.03469435	    -10.83330833	     -2.89952847	     17.95124688	      0.31330836	      7.88006134	     17.44091949	     -7.49999987	    -13.12055882	      5.44030961	     -0.30069165	     -0.71101548	    -13.64198554	     18.36608723	    124.85609754	    113.18335837	      3.60615151	    -13.93548522	     32.77337121	    119.97897286	    106.72451968
      8.80000000	     -5.87624280	     -2.73129091	      2.65137745	     -0.18198735	      1.03231800	     -0.63030751	     10.73760121	     -2.85207706	     -8.87440398	     10.90887765	      0.19039583	      5.10268071	     -5.99697950	     -7.49999987	     18.29203849	    -10.72524345	     -2.44227316	     18.52611304	      0.32334167	      7.68566768	     16.71785852	     -7.49999987	    -13.26122499	      5.39759286	     -0.33517735	     -0.25901476	    -13.61881925	     18.34927848	    124.86699556	    112.63593050	      4.04072917	    -13.95826423	     32.55684915	    119.81510973	    109.24012676
      8.81000000	     -6.59852289	     -2.73290451	      2.59066049	     -0.18571945	      1.03062203	     -0.63051564	     12.27981267	     -3.04383435	     -9.00439562	     11.92431025	      0.20811847	      5.35812904	     -5.96952295	     -7.49999987	     19.70565366	    -10.68071214	     -2.25488738	     19.25721847	      0.33610187	      7.62454873	     16.42996534	     -7.49999987	    -13.38983672	      5.34531178	     -0.29954775	      0.19910062	    -13.59987662	     18.27439296	    124.86457994	    112.66419453	      4.56231157	    -14.01786879	     32.63531719	    119.91827273	    108.92708314
      8.82000000	     -7.27159041	     -2.79312608	      2.53241366	     -0.18957215	      1.02888969	     -0.63062725	     13.80760472	     -3.15254545	     -9.02215372	     12.99235081	      0.22675930	      5.47862168	     -6.16591507	     -7.49999987	     21.08610411	    -10.72146406	     -2.12240128	     19.98771878	      0.34885150	      7.61460461	     16.31370942	     -7.49999987	    -13.62652567	      5.34705698	     -0.27478967	      0.68021225	    -13.57199371	     18.22004653	    124.83954875	    112.34519653	      5.09418489	    -14.09002833	     32.62341577	    120.05443735	    108.82390388
      8.83000000	     -7.87248852	     -2.83463644	      2.56789481	     -0.19359475	      1.02708915	     -0.63098520	     15.30164739	     -3.33989808	     -9.25909459	     14.15928903	      0.24712621	      5.74702798	     -6.14988950	     -7.49999987	     22.42872623	    -10.69452023	     -1.83599222	     20.73621812	      0.36191528	      7.57077123	     16.05799989	     -7.49999987	    -14.01227417	      5.35741900	     -0.35608922	      1.23440318	    -13.52862984	     18.15565985	    124.85269335	    112.18088526	      5.67918005	    -14.14731063	     32.62936193	    120.19081579	    108.88868947
      8.84000000	     -8.48870210	     -2.81758504	      2.57239264	     -0.19784937	      1.02505446	     -0.63136886	     16.89336210	     -3.59256306	     -9.35961224	     15.44971494	      0.26964839	      5.95263187	     -6.30826130	     -7.49999987	     23.79415807	    -10.60851654	     -1.65206944	     21.49325183	      0.37512801	      7.54733483	     15.85391357	     -7.49999987	    -14.44093747	      5.29172003	     -0.40536176	      1.83952546	    -13.49064362	     18.10751597	    124.81070446	    112.07995297	      6.33214780	    -14.21605198	     32.66893950	    120.31525012	    109.02984223
      8.85000000	     -9.14581161	     -2.71188863	      2.57552066	     -0.20235029	      1.02270212	     -0.63181933	     18.61210833	     -3.96899631	     -9.43028232	     16.87692608	      0.29455793	      6.22756504	     -6.49818772	     -7.49999987	     25.19541015	    -10.40992864	     -1.49061321	     22.23429908	      0.38806173	      7.51136613	     15.56250949	     -7.49999987	    -14.90404821	      5.11931115	     -0.49057769	      2.49667291	    -13.44509927	     18.11144463	    124.79738460	    112.02670523	      7.01948590	    -14.31113702	     32.70450667	    120.52963255	    109.11177547
      8.86000000	     -9.88922269	     -2.59862165	      2.55726706	     -0.20705785	      1.01998850	     -0.63214202	     20.48314643	     -4.34702394	     -9.38312414	     18.38554486	      0.32088829	      6.57175172	     -6.69187177	     -7.49999987	     26.69332218	    -10.20732583	     -1.28847684	     22.97471818	      0.40098448	      7.46669859	     15.23056932	     -7.49999987	    -15.31878909	      4.93625873	     -0.58977080	      3.18087346	    -13.39219421	     18.14081688	    124.81660239	    111.94237467	      7.68325465	    -14.42233038	     32.64469245	    120.76790580	    109.16009677
